<?xml version="1.0" encoding="UTF-8"?>
<svg width="84px" height="22px" viewBox="0 0 84 22" version="1.1" xmlns="http://www.w3.org/2000/svg" xmlns:xlink="http://www.w3.org/1999/xlink">
    <!-- Generator: sketchtool 41.2 (35397) - http://www.bohemiancoding.com/sketch -->
    <title>4C1B859A-FAC5-47EB-9025-3CEBEF1EA788</title>
    <desc>Created with sketchtool.</desc>
    <defs></defs>
    <g id="Page-1" stroke="none" stroke-width="1" fill="none" fill-rule="evenodd">
        <g id="Artboard-Copy" transform="translate(-78.000000, -14.000000)" fill="#FFFFFF">
            <g id="Group-5" transform="translate(77.000000, 14.000000)">
                <g id="Group-4" transform="translate(65.599996, 0.000000)">
                    <path d="M11.8568372,9.42407461 C13.7150592,9.07781415 14.2078463,6.92702007 14.2078463,5.46941277 C14.2078463,3.88449313 12.8724144,0.114885786 11.3380955,0.164266731 C9.80377655,0.213647676 8.46834459,3.88449313 8.46834459,5.46941277 C8.46834459,6.94387659 8.97259532,9.15019605 10.8843712,9.44007301 L9.96161406,21.4974329 C9.89729197,22.3379082 10.5283984,23.0191078 11.3712164,23.0191078 C12.2142197,23.0191078 12.8451349,22.3378307 12.7808187,21.4974329 L11.8568372,9.42407461 Z" id="Combined-Shape" transform="translate(11.338095, 11.591447) rotate(35.000000) translate(-11.338095, -11.591447) "></path>
                    <path d="M9.48320631,9.36212182 C10.9040732,9.04847605 11.9870047,7.43474489 11.9875335,5.80261703 L11.5561842,1.04122435 C11.4599874,-0.0206314422 11.3047722,-0.0244584336 11.2111751,1.05115151 L10.8586658,5.10215836 C10.8031013,5.16968605 10.4414599,5.29558455 10.2823013,5.10215836 L9.90686186,1.05115151 C9.80720326,-0.0241688579 9.65727676,-0.0244584336 9.57205159,1.05115151 L9.25107302,5.10215836 C9.21237722,5.15688165 8.89254184,5.29558455 8.75576681,5.10215836 L8.36827922,1.05115151 C8.26542249,-0.0241688579 8.11708542,-0.0244584336 8.03702096,1.05115151 L7.73547887,5.10215836 C7.6967653,5.15688165 7.37443992,5.29558455 7.23471168,5.10215836 L6.61184945,1.03459183 C6.44776328,-0.0369636124 6.27284436,-0.0243102301 6.21941582,1.05148253 L5.98169242,5.83808283 C5.98169242,7.43859608 7.06486235,9.04928378 8.48600698,9.36228693 L7.56120052,21.4464246 C7.49624826,22.2951342 8.1335377,22.9830076 8.98461296,22.9830076 C9.83587535,22.9830076 10.4729717,22.295056 10.4080254,21.4464246 L9.48320631,9.36212182 Z" id="Combined-Shape" transform="translate(8.984613, 11.610376) rotate(-35.000000) translate(-8.984613, -11.610376) "></path>
                </g>
                <text id="mealtime" font-family="Nunito-Bold, Nunito" font-size="14.3999991" font-weight="bold">
                    <tspan x="0.949965274" y="18.019109">mealtime</tspan>
                </text>
            </g>
        </g>
    </g>
</svg>