<svg xmlns="http://www.w3.org/2000/svg" xmlns:xlink="http://www.w3.org/1999/xlink" version="1.1" x="0px" y="0px" viewBox="0 0 144.083 180" enable-background="new 0 0 144.083 144" xml:space="preserve"><path d="M109.93,51.435c-3.796,1.181-6.12,3.774-8.368,6.282c-1.605,1.791-3.122,3.482-5.201,4.752  c-1.754,1.071-3.992,1.674-5.915,2.016H20.031c-1.657,0-3,1.343-3,3c0,15.355,9.083,28.747,22.452,35.666H27.948v6h64.5v-6H80.913  c13.368-6.919,22.451-20.311,22.451-35.666c0-0.831-0.339-1.583-0.885-2.126c1.36-1.2,2.5-2.465,3.551-3.637  c1.938-2.161,3.468-3.869,5.683-4.557c6.44-2.003,9.744,3.39,10.088,3.993l5.252-2.901C125.072,54.67,118.943,48.629,109.93,51.435z   M60.199,102.151c-19.411,0-35.395-13.95-37.03-31.666h74.058C95.59,88.201,79.609,102.151,60.199,102.151z"/><rect x="38.406" y="112.319" width="43.583" height="6"/><path d="M43.995,49.972c1.852,0,3.701,0,5.551,0c6.664-8.096-6.662-16.193,0-24.291c-1.85,0-3.699,0-5.551,0  C37.331,33.778,50.659,41.876,43.995,49.972z"/><path d="M57.42,49.972c1.852,0,3.703,0,5.553,0c6.664-8.096-6.664-16.193,0-24.291c-1.85,0-3.701,0-5.553,0  C50.756,33.778,64.084,41.876,57.42,49.972z"/><path d="M70.848,49.972c1.852,0,3.701,0,5.553,0c6.664-8.096-6.664-16.193,0-24.291c-1.852,0-3.701,0-5.553,0  C64.184,33.778,77.512,41.876,70.848,49.972z"/><text x="0" y="159" fill="#000000" font-size="5px" font-weight="bold" font-family="'Helvetica Neue', Helvetica, Arial-Unicode, Arial, Sans-serif">Created by Chanut is Industries</text><text x="0" y="164" fill="#000000" font-size="5px" font-weight="bold" font-family="'Helvetica Neue', Helvetica, Arial-Unicode, Arial, Sans-serif">from the Noun Project</text></svg>