<?xml version="1.0" encoding="UTF-8"?>
<svg width="18px" height="18px" viewBox="0 0 18 18" version="1.1" xmlns="http://www.w3.org/2000/svg" xmlns:xlink="http://www.w3.org/1999/xlink">
    <!-- Generator: sketchtool 41.2 (35397) - http://www.bohemiancoding.com/sketch -->
    <title>1AF552D1-326A-44BF-81B3-094BCBB7BA00</title>
    <desc>Created with sketchtool.</desc>
    <defs></defs>
    <g id="Page-1" stroke="none" stroke-width="1" fill="none" fill-rule="evenodd">
        <g id="Artboard" transform="translate(-206.000000, -17.000000)" stroke="#FFFFFF">
            <path d="M214.8364,32.3068802 L213.353191,34.1435477 C212.349039,33.9308011 211.412334,33.5354161 210.579475,32.9937936 L210.821238,30.7230298 C210.675536,30.5963774 210.535545,30.463326 210.401702,30.324313 L208.149754,30.5640722 C207.608132,29.7312138 207.212747,28.7945084 207,27.7903568 L208.622024,26.4804843 C208.600641,26.2662212 208.589692,26.0488853 208.589692,25.8289921 C208.589692,25.7654957 208.590605,25.7022126 208.592418,25.6391551 L207,24.3531909 C207.212747,23.3490393 207.608132,22.4123339 208.149754,21.5794755 L210.011406,21.7776808 C210.242489,21.4894151 210.497694,21.221319 210.77396,20.9764536 L210.579475,19.149754 C211.412334,18.6081315 212.349039,18.2127466 213.353191,18 L214.463629,19.3750627 C214.663841,19.3564336 214.866695,19.34691 215.071774,19.34691 C215.276853,19.34691 215.479707,19.3564336 215.679919,19.3750627 L216.790357,18 C217.794508,18.2127466 218.731214,18.6081315 219.564072,19.149754 L219.369588,20.9764536 C219.645854,21.221319 219.901058,21.4894151 220.132142,21.7776808 L221.993794,21.5794755 C222.535416,22.4123339 222.930801,23.3490393 223.143548,24.3531909 L221.551129,25.6391551 C221.552943,25.7022126 221.553856,25.7654957 221.553856,25.8289921 C221.553856,26.0488853 221.542907,26.2662212 221.521524,26.4804843 L223.143548,27.7903568 C222.930801,28.7945084 222.535416,29.7312138 221.993794,30.5640722 L219.741846,30.324313 C219.608003,30.463326 219.468012,30.5963774 219.32231,30.7230298 L219.564072,32.9937936 C218.731214,33.5354161 217.794508,33.9308011 216.790357,34.1435477 L215.307148,32.3068802 C215.229034,32.3096683 215.150568,32.3110742 215.071774,32.3110742 C214.992979,32.3110742 214.914513,32.3096683 214.8364,32.3068802 Z M215.071774,28.4717737 C216.397257,28.4717737 217.471774,27.3972572 217.471774,26.0717738 C217.471774,24.7462905 216.397257,23.671774 215.071774,23.671774 C213.746291,23.671774 212.671774,24.7462905 212.671774,26.0717738 C212.671774,27.3972572 213.746291,28.4717737 215.071774,28.4717737 Z" id="Combined-Shape"></path>
        </g>
    </g>
</svg>