<?xml version="1.0" encoding="UTF-8"?>
<svg width="24px" height="26px" viewBox="0 0 24 26" version="1.1" xmlns="http://www.w3.org/2000/svg" xmlns:xlink="http://www.w3.org/1999/xlink">
    <!-- Generator: sketchtool 41.2 (35397) - http://www.bohemiancoding.com/sketch -->
    <title>671CC2A2-4FE8-4FA8-87C2-A96345BA5BB0</title>
    <desc>Created with sketchtool.</desc>
    <defs></defs>
    <g id="Page-1" stroke="none" stroke-width="1" fill="none" fill-rule="evenodd">
        <g id="Artboard" transform="translate(-62.000000, -246.000000)" stroke-width="0.5" stroke="#FFFFFF" fill="#FFFFFF">
            <g id="noun_163949_cc" transform="translate(63.000000, 247.000000)">
                <g id="Group">
                    <g id="Shape">
                        <path d="M12.962597,1.84666667 C12.8847761,0.815333333 12.0353134,0 11,0 C9.91346269,0 9.02985075,0.897 9.02985075,2 C9.02985075,3.103 9.91346269,4 11,4 C11.911194,4 12.6779104,3.36766667 12.9021791,2.513 C17.8065373,3.43566667 21.3432836,7.73733333 21.3432836,12.8333333 C21.3432836,18.623 16.7032537,23.3333333 11,23.3333333 C5.29674627,23.3333333 0.656716418,18.623 0.656716418,12.8333333 C0.656716418,9.84033333 1.92253731,6.98 4.12976119,4.987 L3.69337313,4.489 C1.34626866,6.60866667 0,9.65 0,12.8333333 C0,18.9906667 4.93456716,24 11,24 C17.0654328,24 22,18.9906667 22,12.8333333 C22,7.39333333 18.2097612,2.804 12.962597,1.84666667 Z M11,3.33333333 C10.2756418,3.33333333 9.68656716,2.73533333 9.68656716,2 C9.68656716,1.26466667 10.2756418,0.666666667 11,0.666666667 C11.7243582,0.666666667 12.3134328,1.26466667 12.3134328,2 C12.3134328,2.73533333 11.7243582,3.33333333 11,3.33333333 Z"></path>
                        <path d="M9.5604047,14.1501213 C9.91316578,14.682119 10.4934436,15 11.113057,15 L11.113057,15 C11.4985452,15 11.8701874,14.8781182 12.1880185,14.6472015 C12.602143,14.3464499 12.8796946,13.8948283 12.9693796,13.3756775 C13.0590646,12.8561974 12.9501838,12.3311173 12.6631918,11.8986015 C12.5750802,11.7645315 12.4668288,11.6433085 12.3242768,11.5181325 L5.51136197,4 L5,4.37124547 L9.33949633,13.6849939 C9.40148913,13.868146 9.47197841,14.0163807 9.5604047,14.1501213 Z M11.8805719,11.9855658 L11.9085789,12.0129069 C12.0127393,12.1025065 12.0876342,12.1851885 12.1458508,12.2731411 C12.3371789,12.562034 12.4101856,12.9118678 12.3500809,13.258078 C12.2899762,13.6042883 12.1052565,13.9053694 11.8289637,14.1059803 C11.6171812,14.2598149 11.3695247,14.3411793 11.113057,14.3411793 L11.113057,14.3411793 C10.6998765,14.3411793 10.3128148,14.1293684 10.077431,13.7745935 C10.0195291,13.6866409 9.97201174,13.5838649 9.92764126,13.4504537 L6.46233788,6.00676789 L11.8805719,11.9855658 Z"></path>
                    </g>
                </g>
            </g>
        </g>
    </g>
</svg>